# File created by Blade
# Date/Time:  Wed Jan 21 17:05:57 2015
# Frame Rate: 120.000 fps
#------------------------------------------------------
:FULLY-SPECIFIED
:DEGREES
539
root 20.174957 35.966245 -19.866287 -179.355985 1.336830 -179.406947
Spine -1.169731 1.008884 -1.571473
Head 11.252759 -1.670830 2.606250
LeftShoulder -3.477813 -33.738353 17.711051
LeftArm 10.954480 11.421526 -5.862771
LeftForeArm 18.281866 -0.000000 -1.416492
LeftHand -3.642577 -0.000000 9.953516
LeftHandThumb1 -26.253704 0.000000 33.147579
RightShoulder -5.872139 -3.825965 -10.413473
RightArm 10.246271 33.930780 10.546224
RightForeArm -36.891374 -0.000000 5.312463
RightHand -7.171432 0.000000 -1.032353
RightHandThumb1 -24.326973 -0.000000 -32.862282
LeftUpLeg -1.287219 13.971660 3.965019
LeftLeg 4.076141 -0.000000 -0.000000
LeftFoot -24.736325 24.035912 -19.046441
LeftToeBase 16.314666 -0.000000 -0.000000
RightUpLeg -4.051956 -9.937239 -0.126133
RightLeg 8.093224 -0.000000 -0.000000
RightFoot -25.483624 -27.272913 20.367975
RightToeBase 7.596948 -0.000000 -0.000000
540
root 20.159156 35.966935 -19.913874 -179.111647 1.286910 -179.398820
Spine -1.723649 0.906646 -1.537031
Head 11.406961 -1.647680 2.607114
LeftShoulder -3.799512 -33.583699 17.802102
LeftArm 10.663841 10.971578 -5.863000
LeftForeArm 18.237700 -0.000000 -1.507707
LeftHand -3.807424 -0.000000 9.821391
LeftHandThumb1 -26.253704 0.000000 33.147579
RightShoulder -6.044896 -3.855882 -10.404529
RightArm 9.838156 34.382298 10.549389
RightForeArm -36.872508 -0.000000 5.256200
RightHand -7.342207 -0.000000 -0.813633
RightHandThumb1 -24.326973 -0.000000 -32.862282
LeftUpLeg -1.237944 13.696112 3.883429
LeftLeg 3.641886 -0.000000 -0.000000
LeftFoot -24.273902 23.883695 -18.996930
LeftToeBase 16.177158 -0.000000 -0.000000
RightUpLeg -3.960583 -10.030009 -0.132228
RightLeg 7.547709 -0.000000 -0.000000
RightFoot -24.641154 -27.422458 20.098349
RightToeBase 7.752236 -0.000000 -0.000000
541
root 20.143677 35.964011 -19.960533 -178.883238 1.268831 -179.367897
Spine -2.249302 0.855488 -1.474330
Head 11.535964 -1.673841 2.603517
LeftShoulder -4.068984 -33.554009 17.900034
LeftArm 10.300162 10.641018 -5.892934
LeftForeArm 18.132507 -0.000000 -1.608786
LeftHand -3.860528 -0.000000 9.830846
LeftHandThumb1 -26.253704 0.000000 33.147579
RightShoulder -6.284429 -3.901956 -10.416469
RightArm 9.531846 34.967386 10.665713
RightForeArm -36.896866 -0.000000 5.205414
RightHand -7.168380 0.000000 -0.730272
RightHandThumb1 -24.326973 -0.000000 -32.862282
LeftUpLeg -1.171529 13.418400 3.836393
LeftLeg 3.224037 -0.000000 -0.000000
LeftFoot -23.831608 23.706442 -18.861629
LeftToeBase 16.363096 -0.000000 -0.000000
RightUpLeg -3.860304 -10.043991 -0.116193
RightLeg 7.003734 -0.000000 -0.000000
RightFoot -23.908019 -27.563248 19.744728
RightToeBase 7.957496 -0.000000 -0.000000
542
root 20.134311 35.961123 -20.007564 -178.616350 1.282644 -179.332133
Spine -2.837401 0.799128 -1.422990
Head 11.709679 -1.651529 2.607002
LeftShoulder -4.357669 -33.459715 17.990618
LeftArm 9.962164 10.264108 -5.886818
LeftForeArm 18.053502 -0.000000 -1.691612
LeftHand -3.911367 -0.000000 9.638282
LeftHandThumb1 -26.253704 0.000000 33.147579
RightShoulder -6.461029 -4.010008 -10.401152
RightArm 9.235089 35.593815 10.759656
RightForeArm -36.884789 -0.000000 5.071236
RightHand -6.968666 0.000000 -0.755874
RightHandThumb1 -24.326973 -0.000000 -32.862282
LeftUpLeg -1.145346 13.189389 3.807563
LeftLeg 2.825511 -0.000000 -0.000000
LeftFoot -23.290121 23.530726 -18.699319
LeftToeBase 16.366893 -0.000000 -0.000000
RightUpLeg -3.844245 -10.132149 -0.071345
RightLeg 6.539675 -0.000000 -0.000000
RightFoot -23.317310 -27.640986 19.309849
RightToeBase 8.657787 -0.000000 -0.000000
